# xmcd
#
# Track frame offsets:
#	150
#	15352
#	28767
#	44127
#	59500
#	74202
#	87910
#	102007
#	117579
#	132950
#	149722
#
# Disc length: 2172 seconds
#
# Revision: 1
# Processed by: cddbd v1.5.2PL0 Copyright (c) Steve Scherf et al.
# Submitted via: audiograbber 1.81.02
#
DISCID=aa087a0b
DTITLE=Kevin Atwater - One Lucky Man
DYEAR=2001
DGENRE=Country
TTITLE0=Whiskey Sour (Ain't No Good Way)
TTITLE1=Kissing This Ring
TTITLE2=I'm There
TTITLE3=My Future Ain't What It Used To Be
TTITLE4=Don't Try To Find Me
TTITLE5=One Lucky Man
TTITLE6=She Left Like She Knew
TTITLE7=My Time
TTITLE8=All Over Now
TTITLE9=Here's Looking At You
TTITLE10=Don't Let Your Dreams Pass You By
EXTD=
EXTT0=
EXTT1=
EXTT2=
EXTT3=
EXTT4=
EXTT5=
EXTT6=
EXTT7=
EXTT8=
EXTT9=
EXTT10=
PLAYORDER=
